<svg xmlns="http://www.w3.org/2000/svg" viewBox="0 0 64 64" id="Chef">
  <path d="M45.999,64h-28a.99943.99943,0,0,1-1-1V58.042a11.91833,11.91833,0,0,1,3.376-8.14453,11.626,11.626,0,0,1,8.46289-3.37793.99954.99954,0,0,1-.06445,1.998,9.60441,9.60441,0,0,0-6.97656,2.78613,10.0484,10.0484,0,0,0-2.79786,6.75V62h8V51.001a1.00122,1.00122,0,0,1,.55664-.89649l7.03809-3.48242a.98775.98775,0,0,1,.41211-.10254A11.61739,11.61739,0,0,1,46.999,58.02832V63A.99942.99942,0,0,1,45.999,64Zm-17-2h16V58.042a9.98142,9.98142,0,0,0-2.83789-6.7334,9.84284,9.84284,0,0,0-6.85742-2.79394H35.2793L28.999,51.62207Z" fill="#f6eded" class="color000000 svgShape"></path>
  <path d="M28.999 48.62109a.99942.99942 0 01-1-1V44.09082a1 1 0 012 0v3.53027A.99942.99942 0 0128.999 48.62109zM34.999 48.541a.99943.99943 0 01-1-1v-3.4502a1 1 0 012 0V47.541A.99942.99942 0 0134.999 48.541z" fill="#f6eded" class="color000000 svgShape"></path>
  <path d="M31.999,46.001c-4.41113,0-8-4.68067-8-10.43457a13.71482,13.71482,0,0,1,.10547-1.70606.99991.99991,0,0,1,1.98438.24805,11.79538,11.79538,0,0,0-.08985,1.458c0,4.65039,2.69141,8.43457,6,8.43457s6-3.78418,6-8.43457a11.735,11.735,0,0,0-.09082-1.458.99991.99991,0,0,1,1.98438-.24805,13.8331,13.8331,0,0,1,.10644,1.70606C39.999,41.32031,36.41016,46.001,31.999,46.001Z" fill="#f6eded" class="color000000 svgShape"></path>
  <path d="M34.55957 42.001H29.45215a1.34571 1.34571 0 01-1.1084-.6045 2.0375 2.0375 0 01-.2041-1.82324l.57715-1.57031a1.41847 1.41847 0 011.31445-1.002H33.917a1.41229 1.41229 0 011.29.93847l.64356 1.57227a2.07023 2.07023 0 01-.167 1.86328A1.35035 1.35035 0 0134.55957 42.001zm-4.44629-2h3.75879l-.39551-1H30.48047zm3.80371-1h0zM40 35H24a.99943.99943 0 01-1-1l-.001-3.63965a1 1 0 112 0L25 33H39V30.43457a1 1 0 012 0V34A.99943.99943 0 0140 35zM25 34h0z" fill="#f6eded" class="color000000 svgShape"></path>
  <path d="M26.99219,31.81543a8.83913,8.83913,0,0,1-3.28321-.48731,1.69382,1.69382,0,0,1-.17871-.084,4.51694,4.51694,0,0,1-2.28515-2.58008,4.43525,4.43525,0,0,1,1.59277-5.05957,8.14288,8.14288,0,0,1,4.4209-1.583,12.06242,12.06242,0,0,1,5.56543,1.01563.99988.99988,0,1,1-.81055,1.82812,10.10575,10.10575,0,0,0-4.64844-.84668,6.15828,6.15828,0,0,0-3.34472,1.19825,2.447,2.447,0,0,0-.8877,2.78613,2.52374,2.52374,0,0,0,1.2959,1.4541l.03223.0166c.03613.01465.06933.03028.10351.04785a10.74249,10.74249,0,0,0,3.96973.23243,2.86734,2.86734,0,0,0,.36914-.0459c.5752-.10547,2.46191-.48242,3.61426-.834.18945-.05175.34375-.09863.50683-.15234a27.04809,27.04809,0,0,0,3.21289-1.292.99939.99939,0,1,1,.86329,1.80273,28.63758,28.63758,0,0,1-3.4502,1.38867c-.19336.06446-.37891.11914-.57617.17383-1.22168.373-3.16211.76172-3.80469.87891a4.71609,4.71609,0,0,1-.60058.07519C28.15723,31.78711,27.58008,31.81543,26.99219,31.81543Z" fill="#f6eded" class="color000000 svgShape"></path>
  <path d="M37.28906 32.001a8.82331 8.82331 0 01-3.23437-.60938l-1.61035-.6289a1.00032 1.00032 0 11.72851-1.86329l1.61035.62989a6.78536 6.78536 0 004.06934.28808 2.30025 2.30025 0 00.64062-.24511 2.86219 2.86219 0 001.249-1.334A2.98193 2.98193 0 0040.669 25.668l-.06543-.13281a2.76821 2.76821 0 00-2.26563-1.48633l-.56152-.0293a10.80224 10.80224 0 00-4.24707.5957l-.63379.22754-1.30078.96094a.99962.99962 0 01-1.19141-1.60547l1.42188-1.05176a1.008 1.008 0 01.25585-.13671l.78028-.28028a12.87693 12.87693 0 015.02441-.707l.56543.0293a4.78642 4.78642 0 013.93555 2.5791l.06738.13574a4.99543 4.99543 0 01.10449 4.3086 4.861 4.861 0 01-2.10254 2.25 4.17161 4.17161 0 01-1.1621.44238A8.86959 8.86959 0 0137.28906 32.001zM31.89746 50.07129a1.00108 1.00108 0 01-.44629-.10547L28.3418 48.4043a.99949.99949 0 11.93359-1.76758l.19043.10058 2.87988 1.43946a1 1 0 01-.44824 1.89453zM22.999 64a.99943.99943 0 01-1-1V58.001a1 1 0 012 0V63A.99942.99942 0 0122.999 64zM40.999 64a.99943.99943 0 01-1-1V58.0791a1 1 0 012 0V63A.99942.99942 0 0140.999 64zM31.01855 56.001a1 1 0 01-.00976-2h.00976a1 1 0 010 2zM31.01855 61.001a1 1 0 01-.00976-2h.00976a1 1 0 010 2zM35.01855 56.001a1 1 0 01-.00976-2h.00976a1 1 0 110 2zM35.01855 61.001a1 1 0 01-.00976-2h.00976a1 1 0 110 2zM9 44.99707c-.01465 0-.0293 0-.04492-.001H1a.99942.99942 0 01-1-1V40.15527a9.24205 9.24205 0 019.55664-9.15234l.44141-.001a1 1 0 010 2H9.52539a7.45882 7.45882 0 00-5.38574 2.09766A7.46733 7.46733 0 002 40.167v2.8291H8v-8.0166a1.00142 1.00142 0 01.51855-.877l5.47461-3.00488a1.00751 1.00751 0 01.4502-.12207A9.25158 9.25158 0 0124 40.13477v3.86132a.99942.99942 0 01-1 1H9.04492C9.0293 44.99707 9.01465 44.99707 9 44.99707zm1-2.001H22V40.14648a7.492 7.492 0 00-2.14062-5.06933 7.43445 7.43445 0 00-5.12305-2.10547L10 35.57129z" fill="#f6eded" class="color000000 svgShape"></path>
  <path d="M12.01074 34.32617a1.0017 1.0017 0 01-.5498-.165L9.44727 32.834a1.00042 1.00042 0 01-.44922-.835V29.37891a1 1 0 112 0V31.46l1.56445 1.03125a1.00006 1.00006 0 01-.55176 1.835zM13.99023 33.249a.99942.99942 0 01-1-1V29.39844a1 1 0 012 0V32.249A.99942.99942 0 0113.99023 33.249z" fill="#f6eded" class="color000000 svgShape"></path>
  <path d="M11.99121 30.999c-3.36035 0-5.99316-3.64941-5.99316-8.30859A5.693 5.693 0 0111.68066 16.999h.6211a5.693 5.693 0 015.68262 5.69141C17.98438 27.34961 15.35156 30.999 11.99121 30.999zm-.31055-12a3.69159 3.69159 0 00-3.68261 3.69141c0 3.41992 1.8291 6.30859 3.99316 6.30859s3.99317-2.88867 3.99317-6.30859A3.6916 3.6916 0 0012.30176 18.999zM5 44.99609a.99942.99942 0 01-1-1V39.98926a1 1 0 012 0v4.00683A.99942.99942 0 015 44.99609zM18.98047 44.99609a.99942.99942 0 01-1-1V40.05176a1 1 0 012 0v3.94433A.99942.99942 0 0118.98047 44.99609z" fill="#f6eded" class="color000000 svgShape"></path>
  <path d="M16.97949,24.001H5.00781a1,1,0,1,1,0-2H16.97949a1,1,0,0,1,0,2Z" fill="#f6eded" class="color000000 svgShape"></path>
  <path d="M6.999 24.001a.9984.9984 0 01-.834-.44727L4.1748 20.55176a.99971.99971 0 011.666-1.10547l1.99023 3.00195A1.00012 1.00012 0 016.999 24.001zM49 44.99805c-.01465 0-.03027 0-.04492-.001H41a.99943.99943 0 01-1-1V40.15625a9.242 9.242 0 019.55664-9.15234l.44141-.001a1 1 0 010 2h-.47266A7.24345 7.24345 0 0042 40.168v2.8291h6v-8.0166a1.00141 1.00141 0 01.51855-.87695l5.47461-3.00489a1.00777 1.00777 0 01.4502-.12207A9.25161 9.25161 0 0164 40.13477v3.8623a.99943.99943 0 01-1 1H49.04492C49.03027 44.99805 49.01465 44.99805 49 44.99805zm1-2.001H62V40.14648a7.2491 7.2491 0 00-7.26367-7.17382L50 35.57227z" fill="#f6eded" class="color000000 svgShape"></path>
  <path d="M52.01855 34.33008a.99619.99619 0 01-.54882-.165L49.4502 32.835A.999.999 0 0149 32V29.41016a1 1 0 012 0v2.05078l1.56934 1.03418a.99994.99994 0 01-.55079 1.835zM54 33.25a.99943.99943 0 01-1-1V29.39941a1 1 0 012 0V32.25A.99943.99943 0 0154 33.25z" fill="#f6eded" class="color000000 svgShape"></path>
  <path d="M51.96973 31c-3.36621 0-6.00293-3.64941-6.00293-8.30859A5.69731 5.69731 0 0151.6582 17h.623a5.69732 5.69732 0 015.69141 5.69141C57.97266 27.35059 55.33594 31 51.96973 31zM51.6582 19a3.696 3.696 0 00-3.6914 3.69141C47.9668 26.11133 49.7998 29 51.96973 29s4.00293-2.88867 4.00293-6.30859A3.696 3.696 0 0052.28125 19zM45 44.99707a.99943.99943 0 01-1-1V39.99023a1 1 0 012 0v4.00684A.99943.99943 0 0145 44.99707zM59 44.99707a.99943.99943 0 01-1-1V40.05273a1 1 0 012 0v3.94434A.99943.99943 0 0159 44.99707z" fill="#f6eded" class="color000000 svgShape"></path>
  <path d="M56.96777,24.002H44.97266a1,1,0,0,1,0-2H56.96777a1,1,0,0,1,0,2Z" fill="#f6eded" class="color000000 svgShape"></path>
  <path d="M46.96777 24.002a.99981.99981 0 01-.834-.44629l-1.99414-3.002a1.00025 1.00025 0 111.666-1.10742l1.99414 3.00195a.9999.9999 0 01-.832 1.55371zM41.99414 17a.99943.99943 0 01-1-1v-.78613a9.00248 9.00248 0 10-18 0V16a1 1 0 01-2 0v-.78613a11.002 11.002 0 1122 0V16A.99942.99942 0 0141.99414 17z" fill="#f6eded" class="color000000 svgShape"></path>
  <path d="M31.99414 6a3 3 0 113-3A3.00328 3.00328 0 0131.99414 6zm0-4a1 1 0 101 1A1.00067 1.00067 0 0031.99414 2zM25.99414 13a.982.982 0 01-.34668-.0625.9982.9982 0 01-.59082-1.28418A6.07124 6.07124 0 0128.64648 8.0625a.99989.99989 0 01.69532 1.875 4.07554 4.07554 0 00-2.41016 2.40918A.99955.99955 0 0125.99414 13zM43.99414 17h-24a1 1 0 010-2h24a1 1 0 010 2z" fill="#f6eded" class="color000000 svgShape"></path>
</svg>
